<svg xmlns="http://www.w3.org/2000/svg" viewBox="0 0 1024 1024" aria-label="WAX logo" role="img">
 <g fill="#fdfcfc">
  <path d="M331.2 731.7 c-0.6 -0.6 -5.3 -16.1 -10.5 -34.2 -5.3 -18.2 -13 -44.9 -17.2 -59.4 -4.7 -16.1 -7.3 -26.7 -6.8 -27.2 0.5 -0.5 7.4 -0.8 15.4 -0.7 l14.4 0.3 8.3 33 c4.6 18.1 9 34.4 9.7 36.2 1.6 3.8 5.1 4.5 7.8 1.5 0.9 -0.9 5.2 -15 9.7 -31.2 4.5 -16.2 8.9 -31.7 9.8 -34.5 l1.7 -5 13.9 0 13.8 0 3.8 13.5 c2.1 7.4 6.3 22.7 9.4 34 6.2 22.4 7 24.6 9.6 25.3 4.7 1.2 4.8 0.9 16 -41.8 3.9 -14.8 7.5 -28 8 -29.2 0.9 -2.2 1.4 -2.3 15.5 -2.3 16.4 0 16.5 0 14.1 7.1 -4.6 13.8 -29.5 97.9 -31.8 107.4 -2 8.5 -2 8.5 -18.8 8.5 -17.1 0 -17.1 0 -19.6 -8.8 -2.8 -10 -9.5 -32.4 -12.7 -42.7 -2.8 -8.9 -3.5 -10.1 -6.1 -11 -2.4 -0.8 -3.1 -0.6 -5.1 1.7 -1.3 1.5 -3.1 5.3 -3.9 8.5 -5.7 20.1 -14.8 49.8 -15.7 51 -1.6 1.8 -31.2 1.9 -32.7 0z"/>
  <path d="M477.4 731.5 c-0.9 -2.3 -0.6 -3.1 13.8 -42.5 7.4 -20.1 15.6 -42.6 18.2 -50 2.5 -7.4 5.9 -16.9 7.4 -21 l2.8 -7.5 17.9 0 17.9 0 5.3 14.5 c2.9 8 10.1 27.8 15.9 44 5.8 16.2 13 36.4 16 44.8 3.1 8.4 5.4 16 5.2 17 -0.3 1.5 -2 1.7 -14.2 2 -9.3 0.2 -14.3 -0.1 -15.2 -0.9 -0.8 -0.6 -2.3 -4 -3.4 -7.5 -3 -9.8 -4.5 -12.2 -8.3 -12.9 -1.7 -0.3 -11.7 -0.4 -22.1 -0.2 -22.1 0.5 -21.1 0 -24.7 12 -1.2 4 -2.6 7.8 -3.1 8.5 -0.8 0.8 -5 1.2 -15 1.2 -11.5 0 -14 -0.3 -14.4 -1.5z m73.4 -43.7 c2.1 -2.1 1.4 -6.5 -3.3 -21.3 -4.9 -15.1 -6.8 -18.2 -10.8 -17.1 -3 0.7 -4.3 3.4 -9.6 19.8 -4.3 13.4 -4.8 16.7 -2.9 18.6 1.7 1.7 24.9 1.7 26.6 0z"/>
  <path d="M613.2 731.8 c-0.6 -0.6 -1.2 -1.7 -1.2 -2.3 0 -0.6 8.6 -13.4 19 -28.5 11.7 -16.8 19 -28.3 19 -29.7 0 -2.7 -2.8 -7 -21.4 -33.1 -19.4 -27.1 -18 -25 -16.6 -26.7 1 -1.2 4.1 -1.5 16.4 -1.5 18 0 15 -1.9 28.6 18.3 5.1 7.7 10.3 14.3 11.6 14.9 3.3 1.5 4.6 0.2 15.5 -16.1 5 -7.5 9.8 -14.4 10.7 -15.3 1.3 -1.6 3.5 -1.8 17.4 -1.8 15.3 0 15.8 0.1 15.8 2.1 0 1.1 -5.1 9.3 -11.3 18.2 -19.6 27.9 -26.7 38.7 -26.7 40.5 0 2.3 2.6 6.4 12.9 20.7 11.7 16.1 25.6 35.7 26.5 37.3 0.4 0.7 0.2 1.9 -0.4 2.7 -1 1.2 -4.3 1.5 -15.9 1.5 -8 0 -15.1 -0.4 -15.7 -0.8 -0.6 -0.4 -6.2 -7.8 -12.4 -16.5 -6.2 -8.7 -12.4 -16.4 -13.7 -17 -3.2 -1.4 -4.4 -0.2 -17.3 18.6 l-10.5 15.2 -14.5 0.3 c-10.5 0.2 -14.9 -0.1 -15.8 -1z"/>
 </g>
 <g fill="#f4b750">
  <path d="M362.1 350.4 c1.8 -2 7.4 -6.9 12.4 -10.9 56.9 -46.3 131.5 -60.6 202.8 -39.1 31.1 9.5 59 25.6 83.7 48.4 l5.5 5.1 -153.9 0.1 -154 0 3.5 -3.6z"/>
 </g>
 <g fill="#ef984a">
  <path d="M312 421.6 c0 -0.4 2.8 -6.2 6.2 -12.9 9.5 -18.7 20.4 -33.9 35.7 -49.9 l7.4 -7.8 151.2 0 151.3 0 6.6 7 c14.2 15.1 27.4 33.7 36 50.8 2.5 5 4.6 9.4 4.6 9.7 0 0.3 -14.1 0.5 -31.4 0.5 -19.6 0 -31.7 0.4 -32.1 1 -0.3 0.5 -3.4 -1.4 -6.9 -4.4 -20.9 -17.7 -46.1 -28.5 -77 -33.1 -51 -7.5 -102.5 3.4 -146 30.9 l-8.9 5.7 -44.3 -0.1 c-29.8 0 -44.3 0.3 -44.6 1 -0.4 1.2 -7.8 2.7 -7.8 1.6z"/>
 </g>
 <g fill="#ea7f48">
  <path d="M553 488.2 c0 -22 15.1 -39.8 39 -45.8 5.1 -1.3 9.2 -1.5 18.5 -1.1 15.1 0.8 27.1 3.7 44.6 11.1 8.8 3.8 13.6 5.3 14.3 4.6 2.3 -2.3 -9 -21.1 -19.5 -32.4 -5.4 -5.8 -6.1 -7 -4.7 -8 1 -0.8 10.8 -1 33.2 -0.8 l31.7 0.3 2.6 5.7 c7.1 15.8 13.6 40.1 15.8 59.2 0.8 6.9 1.5 12.8 1.5 13.2 0 0.4 -37.7 0.6 -83.7 0.5 -46.1 -0.1 -85.9 0.2 -88.5 0.6 l-4.8 0.8 0 -7.9z"/>
  <path d="M295 490.3 c0.1 -20 11.9 -64.2 19.2 -72.1 l2.1 -2.2 47.3 0 c37.5 0 47.2 0.3 46.8 1.3 -0.3 0.6 -3.9 3.6 -8 6.6 -17.2 12.5 -32.4 26.6 -59.4 54.9 l-15.5 16.2 -16.2 0 -16.3 0 0 -4.7z"/>
 </g>
 <g fill="#26a7d8">
  <path d="M609 575 c-55.1 -7.1 -84.6 -22.1 -103.4 -52.5 -2 -3.3 -5.1 -10.5 -6.9 -16 -3.1 -9.6 -3.2 -10.6 -3.2 -27 0 -14.9 0.3 -18 2.3 -25 4.4 -14.9 16.6 -33.9 24.8 -38.7 6.4 -3.7 22.1 -6.9 36.4 -7.5 11.2 -0.4 15.2 -0.1 23.7 1.6 20.1 4.2 28 8.5 18.8 10.4 -28.4 5.8 -38 10 -50 22.1 -18.8 18.9 -24.4 44.8 -14.8 68.7 7.3 18.4 24.8 35.5 44.9 43.9 15.6 6.5 38.7 10.9 56.9 11 5.5 0 11 0.3 12.3 0.6 3 0.9 2.8 3.4 -0.3 3.4 -2 0 -2.5 0.5 -2.5 2.5 0 1.8 -0.5 2.5 -2 2.5 -1.1 0 -2 0.5 -2 1 0 1.6 -19.8 1 -35 -1z"/>
 </g>
 <g fill="#dd6451">
  <path d="M630.5 546 c-41.8 -3.8 -69.8 -21.1 -76.7 -47.2 -2.2 -8.4 -9.8 -7.8 88 -7.3 47.7 0.2 87 0.4 87.5 0.5 0.4 0 0.6 12.3 0.5 27.3 l-0.3 27.2 -45.5 0.1 c-25 0.1 -49.1 -0.2 -53.5 -0.6z"/>
  <path d="M294.1 512.8 c0.1 -9 0.4 -17.3 0.7 -18.6 0.7 -2.2 0.9 -2.3 18.3 -2.5 l17.7 -0.2 -4.1 4.5 c-9.7 10.7 -31.4 33 -32 33 -0.4 0 -0.7 -7.3 -0.6 -16.2z"/>
 </g>
 <g fill="#2190c5">
  <path d="M637.6 576.4 c-0.9 -2.3 -0.8 -2.4 1.5 -2.4 1.1 0 1.7 -0.4 1.4 -1 -0.4 -0.6 0.6 -1 2.1 -1 2.1 0 2.5 -0.3 1.6 -1.2 -0.6 -0.6 -2.9 -1.1 -5.1 -1 -3.2 0.2 -3.9 -0.1 -3.5 -1.3 0.5 -1.3 5.9 -1.5 39.1 -1.5 l38.4 0 -0.3 3.8 -0.3 3.7 -7.6 0.6 c-4.1 0.4 -8.5 1.1 -9.6 1.8 -1.5 0.7 -11.1 1.1 -29.6 1.1 -24.1 0 -27.6 -0.2 -28.1 -1.6z"/>
 </g>
 <g fill="#177cb5">
  <path d="M572.5 586.9 c-50.7 -4.3 -83.8 -23.1 -99 -56.3 -5.3 -11.5 -6.9 -19.4 -6.9 -33.6 0 -15.6 1.7 -22.8 9 -37.5 9 -18.3 22.4 -31.9 39.9 -40.4 8.1 -4 13.5 -5.8 13.5 -4.6 0 0.1 -3.5 3.8 -7.7 8.1 -16.5 17 -24.3 37.8 -23 61.4 1 17.9 7.1 33.2 18.6 47 19.4 23 46.3 34.6 95.6 41.1 21.8 2.9 74 3.9 80.8 1.5 2.6 -0.9 7.2 -1.6 10.2 -1.6 2.9 0 5.7 -0.4 6 -1 0.4 -0.6 -1.9 -1 -6.2 -1.1 -3.7 0 -7.7 -0.4 -8.8 -0.8 -2.2 -0.9 24.2 -2.5 31 -1.9 l4 0.3 0.3 9 c0.2 7.6 0 9.2 -1.4 10.2 -1.4 1 -17.1 1.3 -73.8 1.2 -39.7 -0.1 -76.6 -0.6 -82.1 -1z"/>
 </g>
</svg>
